<!-- Generated by IcoMoon.io -->
<svg version="1.1" xmlns="http://www.w3.org/2000/svg" width="32" height="32" viewBox="0 0 32 32">
<title>untitled49</title>
<path d="M0 32v0zM32 2.816v26.368q0 1.152-0.832 1.984t-1.984 0.832h-7.84v-3.040q0-1.056-0.56-2.048t-1.456-1.6q1.472-0.16 2.608-0.432t2.256-0.816 1.904-1.504 1.168-2.304q0.48-1.856 0.48-3.392 0-3.712-2.208-5.888 0.256-0.928 0.256-1.76 0-1.312-0.576-2.784-0.32-0.064-0.48-0.064-1.568 0-4.448 1.856-2.016-0.48-4.16-0.48-2.432 0-4.64 0.608-2.88-1.984-4.608-1.984-0.192 0-0.448 0.064-0.576 1.344-0.576 2.784 0 1.184 0.352 2.080-1.952 2.080-1.952 5.408 0 1.792 0.64 3.52 1.6 4.384 8.128 5.088-2.368 1.568-2.368 3.648v3.040h-7.84q-1.152 0-1.984-0.832t-0.832-1.984v-26.368q0-1.152 0.832-1.984t1.984-0.832h26.368q1.152 0 1.984 0.832t0.832 1.984z"></path>
</svg>
