{
  "accessors": [
    {
      "bufferView": 2,
      "componentType": 5126,
      "count": 31929,
      "max": [
        1.1221702098846436,
        2.962400197982788,
        1.119321584701538
      ],
      "min": [
        -1.122170329093933,
        -0.0013667773455381393,
        -1.119321584701538
      ],
      "type": "VEC3"
    },
    {
      "bufferView": 2,
      "byteOffset": 383148,
      "componentType": 5126,
      "count": 31929,
      "max": [
        0.9999998807907104,
        1.0,
        0.9999999403953552
      ],
      "min": [
        -0.9999998807907104,
        -1.0,
        -0.9999998807907104
      ],
      "type": "VEC3"
    },
    {
      "bufferView": 1,
      "componentType": 5126,
      "count": 31929,
      "max": [
        1.0000001192092896,
        1.6568900346755981
      ],
      "min": [
        -0.3914703130722046,
        0.013368314132094383
      ],
      "type": "VEC2"
    },
    {
      "bufferView": 0,
      "componentType": 5125,
      "count": 169608,
      "type": "SCALAR"
    }
  ],
  "asset": {
    "extras": {
      "author": "Ergane: Arqueologia Digital na Educação (https://sketchfab.com/Ergane)",
      "license": "CC-BY-4.0 (http://creativecommons.org/licenses/by/4.0/)",
      "source": "https://sketchfab.com/3d-models/pelica-pelike-1193b178ce5d4e72bd8f2610205bf9d1",
      "title": "Pelica- Pelike- πελίκη"
    },
    "generator": "Sketchfab-15.14.0",
    "version": "2.0"
  },
  "bufferViews": [
    {
      "buffer": 0,
      "byteLength": 678432,
      "name": "floatBufferViews",
      "target": 34963
    },
    {
      "buffer": 0,
      "byteLength": 255432,
      "byteOffset": 678432,
      "byteStride": 8,
      "name": "floatBufferViews",
      "target": 34962
    },
    {
      "buffer": 0,
      "byteLength": 766296,
      "byteOffset": 933864,
      "byteStride": 12,
      "name": "floatBufferViews",
      "target": 34962
    }
  ],
  "buffers": [
    {
      "byteLength": 1700160,
      "uri": "scene.bin"
    }
  ],
  "images": [
    {
      "uri": "textures/Material.001_baseColor.jpeg"
    }
  ],
  "materials": [
    {
      "doubleSided": true,
      "name": "Material.001",
      "pbrMetallicRoughness": {
        "baseColorTexture": {
          "index": 0
        },
        "metallicFactor": 0.0,
        "roughnessFactor": 0.5
      }
    }
  ],
  "meshes": [
    {
      "name": "Object_0",
      "primitives": [
        {
          "attributes": {
            "NORMAL": 1,
            "POSITION": 0,
            "TEXCOORD_0": 2
          },
          "indices": 3,
          "material": 0,
          "mode": 4
        }
      ]
    }
  ],
  "nodes": [
    {
      "children": [
        1
      ],
      "matrix": [
        1.0,
        0.0,
        0.0,
        0.0,
        0.0,
        2.220446049250313e-16,
        -1.0,
        0.0,
        0.0,
        1.0,
        2.220446049250313e-16,
        0.0,
        0.0,
        0.0,
        0.0,
        1.0
      ],
      "name": "Sketchfab_model"
    },
    {
      "children": [
        2
      ],
      "name": "root"
    },
    {
      "children": [
        3
      ],
      "matrix": [
        1.0,
        0.0,
        0.0,
        0.0,
        0.0,
        2.220446049250313e-16,
        1.0,
        0.0,
        0.0,
        -1.0,
        2.220446049250313e-16,
        0.0,
        0.0,
        0.0,
        0.0,
        1.0
      ],
      "name": "GLTF_SceneRootNode"
    },
    {
      "children": [
        4
      ],
      "matrix": [
        7.118272304534912,
        0.0,
        0.0,
        0.0,
        0.0,
        7.118272304534912,
        0.0,
        0.0,
        0.0,
        0.0,
        7.118272304534912,
        0.0,
        0.0,
        0.0,
        0.0,
        1.0
      ],
      "name": "Cube_4"
    },
    {
      "mesh": 0,
      "name": "Object_4"
    }
  ],
  "samplers": [
    {
      "magFilter": 9729,
      "minFilter": 9987,
      "wrapS": 10497,
      "wrapT": 10497
    }
  ],
  "scene": 0,
  "scenes": [
    {
      "name": "Sketchfab_Scene",
      "nodes": [
        0
      ]
    }
  ],
  "textures": [
    {
      "sampler": 0,
      "source": 0
    }
  ]
}
